# xmcd
# Copyright (C) 1995-1998 Ti Kan
#
# Track frame offsets:
#       150
#       15881
#       37057
#       52959
#       71774
#       91338
#
# Disc length: 1460 seconds
#
# Revision: 0
# Processed by: cddbd v1.5.1PL0 Copyright (c) Steve Scherf et al.
# Submitted via: CD-Transfer v1.0
#
DISCID=4305b206
DTITLE=Steinblatt and Band - 2004
DYEAR=2004
DGENRE=
TTITLE0=Paper Thin
TTITLE1=Cherry Bomb
TTITLE2=Be My Downfall
TTITLE3=Georgia Rea
TTITLE4=This Side Of The Morning
TTITLE5=Aegeri Original
EXTD=
EXTT0=
EXTT1=
EXTT2=
EXTT3=
EXTT4=
EXTT5=
PLAYORDER=
